Coordinates
version=1
nRows=31
nColumns=33
inDegrees=yes

Units are S.I. units (second, meters, Newtons, ...)
Angles are in degrees.

endheader
time	ground_thorax_rot_x	ground_thorax_rot_y	ground_thorax_rot_z	ground_thorax_tx	ground_thorax_ty	ground_thorax_tz	clav_prot_r	clav_elev_r	scapula_abduction_r	scapula_elevation_r	scapula_upward_rot_r	scapula_winging_r	shoulder_elv_r	plane_of_elev_r	axial_rot_r	elbow_flexion_r	pro_sup_r	wrist_flex_r	wrist_dev_r	clav_prot_l	clav_elev_l	scapula_abduction_l	scapula_elevation_l	scapula_upward_rot_l	scapula_winging_l	shoulder_elv_l	plane_of_elev_l	axial_rot_l	elbow_flexion_l	pro_sup_l	wrist_flex_l	wrist_dev_l	
8.1900	25.026185	34.248764	50.129329	73.841770	775.676005	-44.300464	13.580427	35.981745	28.589555	45.000000	-45.000000	-2240.526140	-4250.311055	20.726262	-161.452689	0.777181	172.303596	11.847274	12.958365	-14.638302	-45.000000	-33.019432	45.000000	-45.000000	-1341.928632	792.498267	24.085863	24.768121	1789.342613	404.039453	12.190357	-13.744515	
8.2000	25.297305	34.309276	49.772975	72.673618	775.337461	-44.408003	13.369868	36.133074	28.575530	45.000000	-45.000000	-2240.606758	-4250.213387	20.658464	-160.996784	0.744425	172.885170	11.947963	12.938535	-14.631127	-45.000000	-33.055510	45.000000	-45.000000	-1341.954953	792.498719	24.020928	24.809827	1789.315263	403.963115	12.237555	-13.761504	
8.2100	25.535392	34.378573	49.484941	71.460243	775.002228	-44.508716	13.149377	36.255223	28.566247	45.000000	-45.000000	-2240.722779	-4250.134345	20.602797	-160.574864	0.733041	173.425932	12.043517	12.908305	-14.604221	-45.000000	-33.058606	45.000000	-45.000000	-1341.961235	792.537229	23.943194	24.849120	1789.265470	403.904878	12.295894	-13.774399	
8.2200	25.742573	34.445184	49.220769	70.146062	774.674947	-44.595604	13.034545	36.312227	28.531474	45.000000	-45.000000	-2240.825180	-4250.063974	20.554173	-160.174764	0.745037	173.860797	12.111761	12.883941	-14.586477	-45.000000	-33.062911	45.000000	-45.000000	-1341.927186	792.575439	23.897500	24.833611	1789.220304	403.896714	12.333901	-13.783811	
8.2300	25.926854	34.509805	48.980257	68.725930	774.355813	-44.666612	12.974502	36.327537	28.479469	45.000000	-45.000000	-2240.926772	-4249.997648	20.514618	-159.790255	0.774579	174.201114	12.161355	12.861360	-14.565886	-45.000000	-33.066379	45.000000	-45.000000	-1341.866979	792.620174	23.863708	24.784920	1789.174580	403.931260	12.362802	-13.792872	
8.2400	26.097561	34.568385	48.750031	67.187056	774.046199	-44.718600	12.950955	36.317849	28.420043	45.000000	-45.000000	-2241.031230	-4249.934789	20.477432	-159.414618	0.808778	174.446846	12.198432	12.840235	-14.545310	-45.000000	-33.070783	45.000000	-45.000000	-1341.785346	792.668507	23.839584	24.712697	1789.133902	404.006666	12.385033	-13.806022	
8.2500	26.262791	34.618620	48.517469	65.529379	773.746972	-44.749631	12.947715	36.294134	28.348747	45.000000	-45.000000	-2241.132690	-4249.865995	20.447268	-159.041061	0.848362	174.614777	12.224808	12.821470	-14.518291	-45.000000	-33.086003	45.000000	-45.000000	-1341.694032	792.717462	23.817947	24.623998	1789.097314	404.114927	12.403134	-13.823978	
8.2600	26.430168	34.657442	48.275392	63.758151	773.459433	-44.758259	12.939043	36.274351	28.277717	45.000000	-45.000000	-2241.238044	-4249.792501	20.417556	-158.667137	0.881361	174.726143	12.248977	12.803795	-14.485702	-45.000000	-33.111192	45.000000	-45.000000	-1341.599803	792.767637	23.792889	24.531514	1789.068061	404.245704	12.421726	-13.850070	
8.2700	26.598704	34.684908	48.021283	61.877073	773.185847	-44.742998	12.937909	36.251322	28.198589	45.000000	-45.000000	-2241.339057	-4249.710424	20.393426	-158.298414	0.916327	174.796013	12.266912	12.789631	-14.445981	-45.000000	-33.152130	45.000000	-45.000000	-1341.504153	792.816930	23.767399	24.429716	1789.045318	404.393716	12.438232	-13.882270	
8.2800	26.768283	34.700592	47.760937	59.889303	772.929393	-44.702444	12.932939	36.231883	28.124599	45.000000	-45.000000	-2241.447350	-4249.626787	20.368160	-157.939171	0.944860	174.837713	12.284092	12.775645	-14.403076	-45.000000	-33.196970	45.000000	-45.000000	-1341.403161	792.870154	23.743515	24.326647	1789.028574	404.553462	12.456556	-13.922284	
8.2900	26.933907	34.705069	47.500637	57.796345	772.693796	-44.635471	12.931134	36.208219	28.049559	45.000000	-45.000000	-2241.561482	-4249.540316	20.348338	-157.594880	0.975435	174.861117	12.296971	12.761908	-14.352994	-45.000000	-33.244190	45.000000	-45.000000	-1341.296257	792.930592	23.723180	24.220475	1789.012608	404.721235	12.476613	-13.967447	
8.3000	27.106027	34.694441	47.229331	55.600484	772.483442	-44.541551	12.915468	36.198569	27.986593	45.000000	-45.000000	-2241.686768	-4249.452285	20.324595	-157.257635	0.991387	174.875475	12.313127	12.747669	-14.302541	-45.000000	-33.291165	45.000000	-45.000000	-1341.184613	792.992385	23.705729	24.121471	1789.002842	404.890609	12.500199	-14.021608	
8.3100	27.281418	34.669338	46.948471	53.302956	772.303079	-44.420858	12.895004	36.195845	27.929186	45.000000	-45.000000	-2241.818653	-4249.362298	20.301492	-156.934085	1.000471	174.884291	12.329099	12.735850	-14.248415	-45.000000	-33.341316	45.000000	-45.000000	-1341.069653	793.055778	23.691811	24.026632	1788.997765	405.056665	12.525208	-14.082518	
8.3200	27.475333	34.622589	46.639181	50.906138	772.157988	-44.274480	12.847842	36.225053	27.890409	45.000000	-45.000000	-2241.959894	-4249.269932	20.270621	-156.612519	0.983252	174.892744	12.354410	12.725413	-14.198553	-45.000000	-33.394004	45.000000	-45.000000	-1340.953620	793.110618	23.682486	23.944159	1789.003037	405.211840	12.554264	-14.155156	
8.3300	27.669304	34.560840	46.324431	48.411473	772.053632	-44.104364	12.801214	36.257099	27.856052	45.000000	-45.000000	-2242.105716	-4249.178154	20.240219	-156.313454	0.963086	174.897621	12.380601	12.719467	-14.143604	-45.000000	-33.450253	45.000000	-45.000000	-1340.833061	793.169301	23.678306	23.866810	1789.009531	405.352562	12.583801	-14.232150	
8.3400	27.857547	34.488117	46.013956	45.822605	771.995782	-43.913367	12.756980	36.285840	27.824060	45.000000	-45.000000	-2242.257199	-4249.089431	20.210526	-156.037151	0.945689	174.897980	12.408007	12.716546	-14.082388	-45.000000	-33.509146	45.000000	-45.000000	-1340.706081	793.235968	23.677092	23.791332	1789.013837	405.474982	12.613510	-14.310960	
8.3500	28.021830	34.413374	45.729334	43.143104	771.990025	-43.704943	12.738320	36.284238	27.781085	45.000000	-45.000000	-2242.411783	-4249.006084	20.188787	-155.796202	0.951532	174.889547	12.429841	12.718045	-14.007235	-45.000000	-33.572401	45.000000	-45.000000	-1340.571283	793.322175	23.677788	23.710813	1789.009190	405.577803	12.640001	-14.385125	
8.3600	28.169575	34.332549	45.461161	40.378826	772.041725	-43.482959	12.731725	36.265142	27.731564	45.000000	-45.000000	-2242.572052	-4248.925676	20.174655	-155.580203	0.969342	174.872746	12.452336	12.721463	-13.922485	-45.000000	-33.639651	45.000000	-45.000000	-1340.431242	793.421340	23.679789	23.628932	1788.998939	405.658663	12.664727	-14.457488	
8.3700	28.294664	34.249678	45.218070	37.535870	772.155659	-43.251269	12.750909	36.214157	27.668032	45.000000	-45.000000	-2242.735495	-4248.848386	20.172709	-155.399373	1.006923	174.844463	12.472098	12.729234	-13.824105	-45.000000	-33.712924	45.000000	-45.000000	-1340.284948	793.537188	23.681327	23.546826	1788.981576	405.718237	12.685131	-14.525927	
8.3800	28.412876	34.156070	44.980791	34.622507	772.336056	-43.013545	12.774199	36.156303	27.601934	45.000000	-45.000000	-2242.903930	-4248.772301	20.178617	-155.243462	1.044719	174.806145	12.497009	12.739099	-13.720326	-45.000000	-33.791279	45.000000	-45.000000	-1340.134666	793.658846	23.682060	23.472568	1788.962977	405.757309	12.703936	-14.596415	
8.3900	28.529379	34.050554	44.739880	31.646814	772.586339	-42.773008	12.802765	36.094149	27.531132	45.000000	-45.000000	-2243.072421	-4248.696483	20.191850	-155.114590	1.080256	174.756405	12.525872	12.753796	-13.610998	-45.000000	-33.878229	45.000000	-45.000000	-1339.983791	793.781125	23.683016	23.409558	1788.947789	405.778782	12.720095	-14.671448	
8.4000	28.656905	33.923933	44.478220	28.617213	772.909176	-42.532454	12.818180	36.050942	27.469113	45.000000	-45.000000	-2243.242532	-4248.619045	20.206291	-155.008773	1.097641	174.694334	12.563806	12.771882	-13.504695	-45.000000	-33.971348	45.000000	-45.000000	-1339.834207	793.893901	23.687356	23.361837	1788.941145	405.785969	12.736958	-14.757270	
8.4100	28.786073	33.783289	44.207571	25.541427	773.306433	-42.294295	12.834521	36.009573	27.408010	45.000000	-45.000000	-2243.411050	-4248.542167	20.223728	-154.934547	1.109517	174.613460	12.603416	12.795381	-13.395118	-45.000000	-34.070908	45.000000	-45.000000	-1339.685341	794.004110	23.695127	23.328050	1788.940786	405.784192	12.752608	-14.851077	
8.4200	28.912087	33.629671	43.934723	22.426675	773.779197	-42.060717	12.851225	35.969486	27.350818	45.000000	-45.000000	-2243.580022	-4248.466609	20.242761	-154.892356	1.118085	174.506425	12.642892	12.821848	-13.283962	-45.000000	-34.173301	45.000000	-45.000000	-1339.535668	794.115684	23.705850	23.302588	1788.943883	405.778505	12.768218	-14.951542	
8.4300	29.031006	33.467899	43.661869	19.279376	774.327755	-41.833761	12.873203	35.923552	27.290961	45.000000	-45.000000	-2243.748286	-4248.393096	20.264592	-154.878813	1.126799	174.364751	12.679211	12.852053	-13.167490	-45.000000	-34.280506	45.000000	-45.000000	-1339.387645	794.229983	23.719829	23.281980	1788.951606	405.771747	12.782591	-15.056822	
8.4400	29.144347	33.295953	43.389512	16.105181	774.951658	-41.615363	12.895808	35.878218	27.235740	45.000000	-45.000000	-2243.918692	-4248.321709	20.286800	-154.893615	1.132503	174.180763	12.713791	12.884082	-13.050142	-45.000000	-34.389819	45.000000	-45.000000	-1339.239476	794.346758	23.737068	23.262669	1788.961423	405.764982	12.797679	-15.165958	
8.4500	29.252356	33.116617	43.117195	12.909038	775.649726	-41.407327	12.919859	35.830436	27.180685	45.000000	-45.000000	-2244.089603	-4248.252843	20.310512	-154.933538	1.134992	173.948905	12.746157	12.918567	-12.928356	-45.000000	-34.502906	45.000000	-45.000000	-1339.091473	794.466506	23.756178	23.245895	1788.975207	405.756524	12.813015	-15.277148	
8.4600	29.359243	32.926437	42.843126	9.695450	776.420092	-41.211330	12.938963	35.788648	27.133085	45.000000	-45.000000	-2244.261982	-4248.187514	20.333736	-154.996630	1.131403	173.668089	12.778394	12.953737	-12.806504	-45.000000	-34.617110	45.000000	-45.000000	-1338.941942	794.588502	23.776408	23.232865	1788.990181	405.743816	12.830913	-15.388992	
8.4700	29.462318	32.729611	42.568217	6.468792	777.260277	-41.028945	12.957220	35.746502	27.085496	45.000000	-45.000000	-2244.434109	-4248.125203	20.358869	-155.080614	1.124515	173.340984	12.808927	12.991019	-12.679695	-45.000000	-34.733295	45.000000	-45.000000	-1338.791526	794.712316	23.798183	23.222787	1789.009035	405.723436	12.850764	-15.499954	
8.4800	29.561925	32.525132	42.293072	3.233257	778.167318	-40.861731	12.971673	35.706485	27.039570	45.000000	-45.000000	-2244.605319	-4248.064581	20.386017	-155.179572	1.115109	172.975315	12.837649	13.030165	-12.549367	-45.000000	-34.851851	45.000000	-45.000000	-1338.640700	794.836528	23.820972	23.212047	1789.030227	405.692915	12.873664	-15.608699	
8.4900	29.655766	32.315665	42.020178	-0.006833	779.138038	-40.711339	12.982796	35.666029	26.991290	45.000000	-45.000000	-2244.775331	-4248.003990	20.416112	-155.288613	1.103211	172.582132	12.864278	13.071479	-12.413610	-45.000000	-34.972906	45.000000	-45.000000	-1338.489585	794.961169	23.844146	23.199036	1789.056666	405.651281	12.898661	-15.714743	
